HIERARCHY
ROOT Hips
{
	OFFSET 0.000000 83.214638 0.000000
	CHANNELS 6 Xposition Yposition Zposition Xrotation Yrotation Zrotation
	JOINT Pelvis
	{
		OFFSET 0.000000 0.000000 0.000000
		CHANNELS 3 Xrotation Yrotation Zrotation
		JOINT LeftUpLeg
		{
			OFFSET 8.479700 -4.795502 -0.379100
			CHANNELS 3 Xrotation Yrotation Zrotation
			JOINT LeftLeg
			{
				OFFSET 0.024144 -32.555107 0.112900
				CHANNELS 3 Xrotation Yrotation Zrotation
				JOINT LeftFoot
				{
					OFFSET -0.024144 -32.638630 -3.012600
					CHANNELS 3 Xrotation Yrotation Zrotation
					JOINT LeftToeBase
					{
						OFFSET 0.970200 -13.225400 11.864200
						CHANNELS 3 Xrotation Yrotation Zrotation
						End Site
						{
							OFFSET 0.000000 12.319262 0.000000
						}
					}
					JOINT LFootTongue
					{
						OFFSET 1.142400 -1.059800 6.665200
						CHANNELS 3 Xrotation Yrotation Zrotation
						End Site
						{
							OFFSET 0.000000 12.319262 0.000000
						}
					}
				}
				JOINT LeftPantLeg
				{
					OFFSET 0.918482 -16.533964 -2.284700
					CHANNELS 3 Xrotation Yrotation Zrotation
					End Site
					{
						OFFSET 0.350399 24.744368 0.000000
					}
				}
			}
		}
		JOINT RightUpLeg
		{
			OFFSET -8.479700 -4.795502 -0.379100
			CHANNELS 3 Xrotation Yrotation Zrotation
			JOINT RightLeg
			{
				OFFSET -0.023144 -32.555092 0.112900
				CHANNELS 3 Xrotation Yrotation Zrotation
				JOINT RightFoot
				{
					OFFSET 0.023144 -32.638641 -3.012700
					CHANNELS 3 Xrotation Yrotation Zrotation
					JOINT RightToeBase
					{
						OFFSET -0.970200 -13.225400 11.864200
						CHANNELS 3 Xrotation Yrotation Zrotation
						End Site
						{
							OFFSET 0.000000 12.319244 0.000000
						}
					}
					JOINT RFootTongue
					{
						OFFSET -1.142200 -1.059800 6.665200
						CHANNELS 3 Xrotation Yrotation Zrotation
						End Site
						{
							OFFSET 0.000000 12.319243 0.000000
						}
					}
				}
				JOINT RightPantLeg
				{
					OFFSET -0.919482 -16.533978 -2.284800
					CHANNELS 3 Xrotation Yrotation Zrotation
					End Site
					{
						OFFSET -0.350400 24.744419 0.000000
					}
				}
			}
		}
	}
	JOINT Spine
	{
		OFFSET 0.000000 7.722000 1.166200
		CHANNELS 3 Xrotation Yrotation Zrotation
		JOINT Spine1
		{
			OFFSET 0.000000 12.024101 0.248800
			CHANNELS 3 Xrotation Yrotation Zrotation
			JOINT Spine2
			{
				OFFSET 0.000000 11.502998 -0.491200
				CHANNELS 3 Xrotation Yrotation Zrotation
				JOINT Neck
				{
					OFFSET 0.000000 18.430702 -3.123100
					CHANNELS 3 Xrotation Yrotation Zrotation
					JOINT Head
					{
						OFFSET 0.000000 9.051102 1.034000
						CHANNELS 3 Xrotation Yrotation Zrotation
						JOINT HairB
						{
							OFFSET 0.208400 24.786102 24.822300
							CHANNELS 3 Xrotation Yrotation Zrotation
							End Site
							{
								OFFSET 0.000000 32.263779 0.000000
							}
						}
						JOINT HairA
						{
							OFFSET -7.081100 24.428299 23.196600
							CHANNELS 3 Xrotation Yrotation Zrotation
							End Site
							{
								OFFSET 0.000000 32.263779 0.000000
							}
						}
						JOINT Hat
						{
							OFFSET 16.728800 15.048294 -15.439601
							CHANNELS 3 Xrotation Yrotation Zrotation
							End Site
							{
								OFFSET 0.000000 32.263779 0.000000
							}
						}
					}
				}
				JOINT LeftShoulder
				{
					OFFSET 6.197800 13.665199 -4.064700
					CHANNELS 3 Xrotation Yrotation Zrotation
					JOINT LeftArm
					{
						OFFSET 7.778100 -0.187103 -1.709300
						CHANNELS 3 Xrotation Yrotation Zrotation
						JOINT LeftForeArm
						{
							OFFSET 22.049376 0.000000 0.000000
							CHANNELS 3 Xrotation Yrotation Zrotation
							JOINT LeftHand
							{
								OFFSET 23.009392 0.000000 0.000000
								CHANNELS 3 Xrotation Yrotation Zrotation
								JOINT LeftHandThumb1
								{
									OFFSET 3.507191 -2.063065 3.133727
									CHANNELS 3 Xrotation Yrotation Zrotation
									JOINT LeftHandThumb2
									{
										OFFSET 3.101337 -1.790558 1.790558
										CHANNELS 3 Xrotation Yrotation Zrotation
										JOINT LeftHandThumb3
										{
											OFFSET 3.058640 -1.765907 1.765906
											CHANNELS 3 Xrotation Yrotation Zrotation
											End Site
											{
												OFFSET -0.415260 3.926476 -0.049563
											}
										}
									}
								}
								JOINT LeftHandIndex1
								{
									OFFSET 11.334419 -0.901459 3.706815
									CHANNELS 3 Xrotation Yrotation Zrotation
									JOINT LeftHandIndex2
									{
										OFFSET 3.283112 0.000000 0.000000
										CHANNELS 3 Xrotation Yrotation Zrotation
										JOINT LeftHandIndex3
										{
											OFFSET 3.323853 0.000000 0.000000
											CHANNELS 3 Xrotation Yrotation Zrotation
											End Site
											{
												OFFSET -1.135597 3.097809 0.402452
											}
										}
									}
								}
								JOINT LeftHandMiddle1
								{
									OFFSET 11.335861 0.000000 0.000000
									CHANNELS 3 Xrotation Yrotation Zrotation
									JOINT LeftHandMiddle2
									{
										OFFSET 3.410492 0.000000 0.000000
										CHANNELS 3 Xrotation Yrotation Zrotation
										JOINT LeftHandMiddle3
										{
											OFFSET 3.312172 0.000000 0.000000
											CHANNELS 3 Xrotation Yrotation Zrotation
											End Site
											{
												OFFSET -1.150200 3.080154 0.400270
											}
										}
									}
								}
								JOINT LeftHandRing1
								{
									OFFSET 11.514786 -0.013176 -3.003090
									CHANNELS 3 Xrotation Yrotation Zrotation
									JOINT LeftHandRing2
									{
										OFFSET 3.053307 0.000000 0.000000
										CHANNELS 3 Xrotation Yrotation Zrotation
										JOINT LeftHandRing3
										{
											OFFSET 3.295807 0.000000 0.000000
											CHANNELS 3 Xrotation Yrotation Zrotation
											End Site
											{
												OFFSET -1.281006 3.013344 0.375733
											}
										}
									}
								}
								JOINT LeftHandPinky1
								{
									OFFSET 10.518692 -0.960396 -5.730441
									CHANNELS 3 Xrotation Yrotation Zrotation
									JOINT LeftHandPinky2
									{
										OFFSET 2.861649 0.000000 0.000000
										CHANNELS 3 Xrotation Yrotation Zrotation
										JOINT LeftHandPinky3
										{
											OFFSET 2.863380 0.000000 0.000000
											CHANNELS 3 Xrotation Yrotation Zrotation
											End Site
											{
												OFFSET -0.843597 2.711159 0.369971
											}
										}
									}
								}
							}
							JOINT LSleeve
							{
								OFFSET 6.676277 -0.344902 -1.011730
								CHANNELS 3 Xrotation Yrotation Zrotation
								End Site
								{
									OFFSET 0.000000 14.885353 0.000000
								}
							}
						}
					}
				}
				JOINT RightShoulder
				{
					OFFSET -6.197800 13.665199 -4.064700
					CHANNELS 3 Xrotation Yrotation Zrotation
					JOINT RightArm
					{
						OFFSET -7.778100 -0.187103 -1.709300
						CHANNELS 3 Xrotation Yrotation Zrotation
						JOINT RightForeArm
						{
							OFFSET -22.049376 0.000000 0.000000
							CHANNELS 3 Xrotation Yrotation Zrotation
							JOINT RightHand
							{
								OFFSET -23.009392 0.000000 0.000000
								CHANNELS 3 Xrotation Yrotation Zrotation
								JOINT RightHandThumb1
								{
									OFFSET -3.507191 -2.063065 3.133727
									CHANNELS 3 Xrotation Yrotation Zrotation
									JOINT RightHandThumb2
									{
										OFFSET -3.101337 -1.790558 1.790558
										CHANNELS 3 Xrotation Yrotation Zrotation
										JOINT RightHandThumb3
										{
											OFFSET -3.058640 -1.765907 1.765906
											CHANNELS 3 Xrotation Yrotation Zrotation
											End Site
											{
												OFFSET 0.415260 3.926476 -0.049563
											}
										}
									}
								}
								JOINT RightHandIndex1
								{
									OFFSET -11.334419 -0.901459 3.706815
									CHANNELS 3 Xrotation Yrotation Zrotation
									JOINT RightHandIndex2
									{
										OFFSET -3.283112 0.000000 0.000000
										CHANNELS 3 Xrotation Yrotation Zrotation
										JOINT RightHandIndex3
										{
											OFFSET -3.323853 0.000000 0.000000
											CHANNELS 3 Xrotation Yrotation Zrotation
											End Site
											{
												OFFSET 1.135597 3.097809 0.402452
											}
										}
									}
								}
								JOINT RightHandMiddle1
								{
									OFFSET -11.335861 0.000000 0.000000
									CHANNELS 3 Xrotation Yrotation Zrotation
									JOINT RightHandMiddle2
									{
										OFFSET -3.410492 0.000000 0.000000
										CHANNELS 3 Xrotation Yrotation Zrotation
										JOINT RightHandMiddle3
										{
											OFFSET -3.312172 0.000000 0.000000
											CHANNELS 3 Xrotation Yrotation Zrotation
											End Site
											{
												OFFSET 1.150200 3.080154 0.400270
											}
										}
									}
								}
								JOINT RightHandRing1
								{
									OFFSET -11.514786 -0.013176 -3.003090
									CHANNELS 3 Xrotation Yrotation Zrotation
									JOINT RightHandRing2
									{
										OFFSET -3.053307 0.000000 0.000000
										CHANNELS 3 Xrotation Yrotation Zrotation
										JOINT RightHandRing3
										{
											OFFSET -3.295807 0.000000 0.000000
											CHANNELS 3 Xrotation Yrotation Zrotation
											End Site
											{
												OFFSET 1.281006 3.013344 0.375733
											}
										}
									}
								}
								JOINT RightHandPinky1
								{
									OFFSET -10.518692 -0.960396 -5.730441
									CHANNELS 3 Xrotation Yrotation Zrotation
									JOINT RightHandPinky2
									{
										OFFSET -2.861649 0.000000 0.000000
										CHANNELS 3 Xrotation Yrotation Zrotation
										JOINT RightHandPinky3
										{
											OFFSET -2.863380 0.000000 0.000000
											CHANNELS 3 Xrotation Yrotation Zrotation
											End Site
											{
												OFFSET 0.843597 2.711159 0.369971
											}
										}
									}
								}
							}
							JOINT RSleeve
							{
								OFFSET -6.676277 -0.344902 -1.011730
								CHANNELS 3 Xrotation Yrotation Zrotation
								End Site
								{
									OFFSET 0.000000 14.885353 0.000000
								}
							}
						}
					}
				}
				JOINT Backpack
				{
					OFFSET 0.000000 -2.471497 36.677502
					CHANNELS 3 Xrotation Yrotation Zrotation
					End Site
					{
						OFFSET 0.000000 20.427315 0.000000
					}
				}
				JOINT Hood
				{
					OFFSET 0.000000 18.754097 -10.431000
					CHANNELS 3 Xrotation Yrotation Zrotation
					JOINT Hood1
					{
						OFFSET 0.000000 -5.011002 -7.685901
						CHANNELS 3 Xrotation Yrotation Zrotation
						End Site
						{
							OFFSET 0.000000 9.175140 0.000000
						}
					}
				}
				JOINT LHoodieString
				{
					OFFSET 5.250500 16.397697 3.089900
					CHANNELS 3 Xrotation Yrotation Zrotation
					JOINT LHoodieString1
					{
						OFFSET 0.257700 -6.364304 3.694600
						CHANNELS 3 Xrotation Yrotation Zrotation
						JOINT LHoodieString2
						{
							OFFSET 0.000000 -9.643799 2.679100
							CHANNELS 3 Xrotation Yrotation Zrotation
							End Site
							{
								OFFSET 0.000000 10.009018 0.000000
							}
						}
					}
				}
				JOINT RHoodieString
				{
					OFFSET -5.250500 16.397697 3.089900
					CHANNELS 3 Xrotation Yrotation Zrotation
					JOINT RHoodieString1
					{
						OFFSET -0.257700 -6.364304 3.694600
						CHANNELS 3 Xrotation Yrotation Zrotation
						JOINT RHoodieString2
						{
							OFFSET 0.000000 -9.643799 2.679100
							CHANNELS 3 Xrotation Yrotation Zrotation
							End Site
							{
								OFFSET 0.000000 10.009018 0.000000
							}
						}
					}
				}
			}
			JOINT LBackpack_Strap
			{
				OFFSET 15.223200 -7.719803 -6.610900
				CHANNELS 3 Xrotation Yrotation Zrotation
				End Site
				{
					OFFSET 0.000000 16.040596 0.000000
				}
			}
			JOINT RBackpack_Strap
			{
				OFFSET -15.223000 -7.719803 -6.610900
				CHANNELS 3 Xrotation Yrotation Zrotation
				End Site
				{
					OFFSET 0.000000 16.040596 0.000000
				}
			}
		}
	}
	JOINT BoyFacialAnim_Joint
	{
		OFFSET 1.000000 -82.208099 -1.550900
		CHANNELS 3 Xrotation Yrotation Zrotation
		End Site
		{
			OFFSET 0.000000 30.012791 0.000000
		}
	}
}
MOTION
Frames: 5
Frame Time: 0.033333
9.512047 73.665085 6.976421 3.250605 -60.805035 6.938279 -0.000000 -0.000002 -0.000000 -32.426087 5.019632 23.866761 46.660017 2.696476 -14.515465 -12.098088 -7.441068 -8.595228 0.000000 -0.000001 0.000000 0.000000 -0.000001 0.000000 0.000000 -0.000002 0.000001 -32.162152 -5.770489 -24.375140 48.023555 10.043979 -8.883914 -18.360624 -4.669417 19.742243 0.000000 -0.000000 -0.000000 0.000000 -0.000000 -0.000000 0.000002 -0.000003 -0.000000 11.056130 0.411898 -2.781953 7.906735 0.462537 -5.970123 7.805364 -0.033883 -5.882422 -19.963152 24.599560 8.964342 -2.884588 27.416548 -0.968147 0.000000 -0.000000 -0.000001 0.000000 -0.000000 -0.000001 0.000000 -0.000000 -0.000001 -6.888343 -11.611322 -6.315528 -20.351174 10.408770 -27.370909 6.984460 -51.243429 3.336229 3.980644 11.458551 18.352759 -3.008733 -7.447860 11.289805 3.175915 22.137306 -0.898667 -0.000001 -0.000001 0.000002 12.015549 -1.341283 10.301074 -0.167593 0.303426 -31.081643 -0.000001 -0.000001 -0.000004 8.658592 -0.544130 1.417663 0.234137 0.663319 -31.016009 -0.000000 -0.000002 -0.000002 6.868820 2.272799 -11.033313 0.056331 0.336208 -32.771056 0.000001 0.000000 -0.000004 -1.177885 5.729718 -10.213896 0.211110 0.271303 -42.315747 0.000000 -0.000000 -0.000000 0.000002 0.000000 0.000001 -6.089093 12.799001 2.857743 -43.081667 -27.365368 25.779127 226.624666 71.927834 -216.198464 4.147996 21.496105 -24.140604 -1.696048 7.707021 -6.822153 0.415974 -14.726443 3.857322 0.000002 -0.000000 -0.000002 16.690382 6.697461 -18.174467 -0.107854 -0.341923 24.080752 -0.000003 0.000004 0.000002 5.954496 2.207927 -14.031994 0.349137 -0.461284 26.890332 0.000001 -0.000001 -0.000000 -3.565264 -4.452692 -5.953424 0.110897 -0.095264 27.599722 0.000001 -0.000002 0.000007 -13.300574 -10.645942 -2.652651 0.223541 -0.086949 37.920544 -0.000002 0.000002 -0.000003 -0.000001 0.000003 0.000002 0.000001 0.000001 -0.000001 0.000001 0.000001 -0.000001 0.000001 0.000001 -0.000001 0.000001 0.000001 -0.000001 0.000001 0.000001 -0.000001 -0.000001 0.000001 -0.000001 0.000001 0.000001 -0.000001 0.000001 0.000001 -0.000001 -0.000001 0.000001 -0.000001 0.000000 0.000002 -0.000001 0.000000 0.000002 -0.000001 -0.000000 -0.000002 -0.000000 
9.414682 73.700722 6.754023 3.261427 -60.383093 6.931921 0.000000 0.000000 0.000000 -32.918739 5.920400 23.931198 46.069093 1.395822 -13.638647 -11.687425 -7.074386 -8.578026 -0.000000 -0.000000 -0.000000 -0.000000 -0.000000 0.000000 0.000001 0.000003 0.000000 -32.299732 -6.167709 -24.551936 48.219390 10.073297 -8.567067 -18.525247 -4.622214 19.335565 0.000000 0.000001 0.000000 0.000000 0.000001 0.000000 -0.000000 0.000000 0.000001 11.061931 0.322097 -2.773836 7.965653 0.312598 -5.895861 7.890863 -0.144471 -5.796135 -20.245560 24.694952 9.510132 -2.309758 27.153854 -1.387256 -0.000000 -0.000000 0.000000 -0.000000 -0.000000 0.000000 -0.000000 -0.000000 0.000000 -6.765694 -11.596574 -5.918781 -20.661887 10.598060 -29.093546 5.521340 -50.154602 2.535482 6.620595 9.577004 17.546425 -2.635091 -7.537051 10.746045 2.992245 21.712432 -1.061971 0.000001 -0.000000 -0.000001 12.219215 -1.250160 10.951674 -0.167697 0.303094 -31.019540 -0.000002 0.000001 0.000000 8.640070 -0.513598 1.700781 0.233557 0.662919 -30.758295 0.000001 0.000000 0.000002 6.723759 2.368859 -11.166614 0.054381 0.333513 -32.235122 0.000001 0.000000 -0.000007 -1.910996 5.855389 -10.120624 0.213131 0.272145 -42.978054 -0.000001 -0.000000 -0.000000 -0.000001 0.000001 0.000001 -5.979554 12.394446 2.749394 -42.542598 -27.026775 26.971292 223.053378 71.745106 -214.042542 2.400407 20.672022 -22.068712 -1.299146 8.024832 -7.535977 0.527673 -15.053054 3.764884 -0.000001 -0.000002 -0.000001 17.263798 7.425286 -17.459524 -0.110558 -0.337531 22.677019 -0.000003 0.000001 0.000004 5.682080 2.299581 -12.636460 0.349116 -0.461263 26.890330 0.000002 0.000001 -0.000000 -4.368167 -5.348874 -4.161411 0.111471 -0.091801 26.776514 0.000001 -0.000000 0.000005 -14.665811 -12.016744 -1.322098 0.223688 -0.086041 37.050313 -0.000000 -0.000001 0.000000 0.000001 0.000002 -0.000000 -0.000001 0.000000 -0.000000 -0.000001 0.000000 -0.000000 -0.000001 0.000000 -0.000000 -0.000001 0.000000 -0.000000 -0.000001 0.000000 0.000001 -0.000001 0.000000 -0.000000 -0.000001 0.000000 -0.000000 -0.000001 0.000000 0.000001 -0.000001 0.000000 -0.000000 0.000002 0.000001 -0.000000 0.000002 0.000001 -0.000000 0.000000 0.000000 0.000000 
9.315068 73.735046 6.539181 3.251859 -59.971048 6.905331 -0.000000 -0.000001 0.000000 -33.379602 6.779135 23.998872 45.525813 0.150858 -12.809183 -11.294165 -6.740207 -8.580225 0.000000 0.000000 -0.000000 0.000000 0.000000 0.000000 0.000001 0.000000 -0.000001 -32.419233 -6.569912 -24.723220 48.405523 10.114734 -8.271442 -18.687746 -4.584442 18.944749 0.000000 0.000000 -0.000000 0.000000 0.000000 -0.000000 -0.000002 -0.000001 0.000002 11.072642 0.250336 -2.769477 8.035337 0.208390 -5.826425 7.983053 -0.225474 -5.718204 -20.511208 24.779919 10.028807 -1.794774 26.956440 -1.779338 -0.000000 -0.000000 0.000001 -0.000000 -0.000000 0.000001 -0.000000 -0.000000 0.000001 -6.651396 -11.580850 -5.539173 -20.989600 10.641335 -30.692650 4.181163 -48.972088 1.820231 9.393370 7.299264 16.899913 -2.293234 -7.622109 10.250985 2.823526 21.324143 -1.212478 0.000001 -0.000000 -0.000001 12.424035 -1.174014 11.325334 -0.167733 0.302900 -30.988247 -0.000000 -0.000000 -0.000000 8.617587 -0.482073 1.679376 0.233005 0.662474 -30.539295 0.000001 -0.000001 -0.000002 6.587728 2.481028 -11.618907 0.052702 0.331008 -31.755445 -0.000001 -0.000001 -0.000002 -2.634531 6.050579 -10.345224 0.215158 0.273073 -43.644731 0.000000 0.000001 -0.000000 -0.000001 0.000000 -0.000000 -5.877494 12.021760 2.663005 -42.065619 -26.785789 27.973538 219.071528 71.527298 -211.485592 0.382314 19.706199 -19.888995 -0.943809 8.367380 -8.213583 0.658808 -15.424164 3.653347 0.000001 0.000002 0.000002 17.775757 8.139831 -16.723749 -0.112737 -0.333849 21.485916 -0.000002 0.000000 0.000002 5.416828 2.367510 -11.215627 0.349156 -0.461285 26.890340 0.000002 0.000003 0.000000 -5.062192 -6.281745 -2.349940 0.111830 -0.089505 26.232726 -0.000002 -0.000000 -0.000001 -15.860326 -13.446246 0.022403 0.223859 -0.085412 36.508696 -0.000000 -0.000001 0.000000 -0.000001 -0.000000 0.000000 0.000003 0.000000 -0.000001 0.000003 0.000000 -0.000001 0.000003 0.000000 -0.000001 0.000003 0.000000 -0.000001 0.000003 0.000000 -0.000002 -0.000000 0.000000 -0.000001 0.000003 0.000000 -0.000001 0.000003 0.000000 -0.000002 -0.000000 0.000000 -0.000001 -0.000000 0.000001 -0.000001 -0.000000 0.000001 -0.000001 -0.000000 -0.000001 0.000000 
9.216347 73.768105 6.364997 3.227159 -59.579378 6.865216 0.000000 -0.000001 -0.000000 -33.803416 7.590510 24.041513 44.851469 -2.007979 -12.116908 -10.930258 -5.455926 -8.314523 -0.000000 -0.000002 0.000000 -0.000000 -0.000002 0.000000 -0.000001 0.000000 0.000000 -32.497128 -6.963541 -24.905580 48.544255 10.157026 -7.998879 -18.835729 -4.545558 18.603538 0.000000 0.000001 0.000000 0.000000 0.000001 0.000000 -0.000000 -0.000001 0.000001 11.081220 0.181280 -2.775365 8.094890 0.091116 -5.773074 8.066484 -0.274661 -5.668106 -20.760329 24.854092 10.509814 -1.367097 26.692591 -2.085416 -0.000000 -0.000000 -0.000000 -0.000000 -0.000000 -0.000000 -0.000000 -0.000000 -0.000000 -6.547099 -11.564808 -5.184590 -21.294961 10.740542 -32.136214 3.096204 -47.938714 1.291923 12.173862 4.865072 16.407351 -1.986429 -7.701382 9.808754 2.671376 20.975950 -1.348475 0.000002 -0.000000 0.000000 12.623986 -1.113333 11.475564 -0.167737 0.302960 -30.981560 -0.000001 0.000001 0.000002 8.593116 -0.450476 1.425960 0.232559 0.661968 -30.356762 0.000001 -0.000001 -0.000000 6.464598 2.604349 -12.300652 0.051249 0.328784 -31.333909 -0.000001 0.000000 -0.000002 -3.325415 6.303339 -10.803121 0.217168 0.273899 -44.293678 -0.000002 0.000000 -0.000002 0.000002 0.000001 -0.000003 -5.784094 11.685155 2.596155 -41.606043 -26.503762 28.919745 215.406586 71.227590 -209.195840 -1.554016 18.591261 -17.756550 -0.631280 8.717656 -8.843279 0.800373 -15.817873 3.531011 0.000001 0.000000 -0.000000 18.221372 8.823632 -15.995582 -0.114537 -0.330672 20.494715 -0.000000 -0.000003 -0.000002 5.165260 2.413322 -9.820286 0.349175 -0.461273 26.890328 0.000000 0.000001 0.000002 -5.641418 -7.217590 -0.581454 0.112018 -0.088148 25.919619 -0.000001 0.000000 0.000002 -16.875046 -14.882077 1.331569 0.223878 -0.085140 36.235151 0.000001 -0.000001 -0.000003 0.000000 0.000006 0.000002 -0.000002 0.000000 0.000001 -0.000002 0.000000 0.000001 -0.000002 0.000000 0.000001 -0.000002 0.000000 0.000001 -0.000002 0.000000 0.000001 -0.000001 -0.000001 0.000002 -0.000002 0.000000 0.000001 -0.000002 0.000000 0.000001 -0.000001 -0.000001 0.000002 -0.000000 0.000002 -0.000001 -0.000000 0.000002 -0.000001 0.000000 -0.000001 -0.000000 
9.129182 73.796890 6.190763 3.192297 -59.219017 6.813663 -0.000000 -0.000001 0.000000 -34.184414 8.315429 24.104518 44.487966 -2.866640 -11.414493 -10.611136 -5.390399 -8.391756 -0.000000 0.000001 -0.000000 -0.000000 0.000001 -0.000000 -0.000001 0.000001 -0.000001 -32.576516 -7.336515 -25.053742 48.772516 10.836700 -7.734769 -18.994384 -5.111097 18.044412 -0.000000 0.000000 -0.000000 -0.000000 0.000000 -0.000000 0.000001 -0.000001 0.000001 11.104514 0.118702 -2.778631 8.183310 -0.002909 -5.716663 8.175856 -0.323938 -5.612173 -20.981311 24.917404 10.943954 -1.027581 26.543905 -2.410378 0.000000 0.000000 -0.000001 0.000000 0.000000 -0.000001 0.000000 0.000000 -0.000001 -6.454355 -11.549206 -4.862930 -21.706152 10.812723 -33.404065 2.187685 -46.890301 0.872232 14.866909 2.316459 16.071551 -1.717998 -7.772888 9.423302 2.537714 20.671540 -1.468228 0.000001 -0.000001 0.000002 12.812590 -1.068000 11.456000 -0.167699 0.302942 -30.993203 0.000000 0.000001 -0.000002 8.568512 -0.419836 1.012870 0.232219 0.661836 -30.208475 0.000001 -0.000000 -0.000001 6.357539 2.732492 -13.122578 0.050021 0.326796 -30.972309 -0.000001 -0.000001 -0.000004 -3.961259 6.596310 -11.411225 0.219103 0.274616 -44.903030 -0.000001 0.000004 -0.000001 -0.000002 -0.000000 -0.000002 -5.700776 11.388875 2.546396 -41.296458 -26.430216 29.618279 211.728938 70.727674 -206.791750 -3.547713 17.402036 -15.647593 -0.362940 9.058963 -9.412399 0.943602 -16.212031 3.406000 0.000003 -0.000001 0.000004 18.597808 9.457631 -15.302767 -0.115888 -0.328097 19.690793 -0.000000 -0.000001 0.000003 4.934069 2.439899 -8.500906 0.349125 -0.461286 26.890301 -0.000002 0.000002 0.000000 -6.105766 -8.118521 1.083098 0.112076 -0.087662 25.788400 -0.000000 0.000003 0.000001 -17.707747 -16.266118 2.560392 0.223946 -0.085061 36.169342 -0.000000 0.000000 -0.000001 0.000001 0.000001 -0.000003 0.000001 -0.000002 0.000002 0.000001 -0.000002 0.000002 0.000001 -0.000002 0.000002 0.000001 -0.000002 0.000002 0.000001 -0.000002 0.000002 -0.000003 -0.000000 0.000001 0.000001 -0.000002 0.000002 0.000001 -0.000002 0.000002 -0.000003 -0.000000 0.000001 -0.000001 -0.000002 0.000000 -0.000001 -0.000002 0.000000 -0.000000 -0.000001 0.000000 
